Farrah Abraham is teen mom show celebrity.



General
Complete name                            : Teen.mom.Farrah.Abraham.celebrity.sextape-xcell0VIVID CELEB-scene2.mp4
Format                                   : MPEG-4
Codec ID                                 : M4V 
File size                                : 14.6 MiB
Duration                                 : 2mn 34s
Overall bit rate mode                    : Variable
Overall bit rate                         : 797 Kbps
Encoded date                             : UTC 2013-05-01 23:58:05
Tagged date                              : UTC 2013-05-01 23:58:05

Video
ID                                       : 1
Format                                   : AVC
Format/Info                              : Advanced Video Codec
Format profile                           : Main@L3.0
Format settings, CABAC                   : Yes
Format settings, ReFrames                : 3 frames
Codec ID                                 : avc1
Codec ID/Info                            : Advanced Video Coding
Duration                                 : 2mn 33s
Bit rate mode                            : Variable
Bit rate                                 : 698 Kbps
Maximum bit rate                         : 750 Kbps
Width                                    : 640 pixels
Height                                   : 360 pixels
Display aspect ratio                     : 16:9
Frame rate mode                          : Constant
Frame rate                               : 23.976 fps
Color space                              : YUV
Chroma subsampling                       : 4:2:0
Bit depth                                : 8 bits
Scan type                                : Progressive
Bits/(Pixel*Frame)                       : 0.126
Stream size                              : 12.8 MiB (88%)
Encoded date                             : UTC 2013-05-01 23:58:05
Tagged date                              : UTC 2013-05-01 23:58:05

Audio
ID                                       : 2
Format                                   : AAC
Format/Info                              : Advanced Audio Codec
Format profile                           : HE-AAC / LC
Codec ID                                 : 40
Duration                                 : 2mn 34s
Duration_LastFrame                       : -21ms
Bit rate mode                            : Variable
Bit rate                                 : 96.0 Kbps
Maximum bit rate                         : 100 Kbps
Channel(s)                               : 2 channels
Channel positions                        : Front: L R
Sampling rate                            : 48.0 KHz / 24.0 KHz
Compression mode                         : Lossy
Stream size                              : 1.74 MiB (12%)
Encoded date                             : UTC 2013-05-01 23:58:05
Tagged date                              : UTC 2013-05-01 23:58:05
